<svg width="64" height="44" viewBox="0 0 64 44" fill="none" xmlns="http://www.w3.org/2000/svg">
<g clip-path="url(#clip0_17_903)">
<path opacity="0.4" d="M14.7222 29.9271C19.4954 27.0175 22.6579 22 22.6579 16.2937C22.6579 7.29473 14.5547 0 0.0088501 0C9.68159 0 17.5232 7.29473 17.5232 16.2937C17.5213 17.0772 17.4594 17.8593 17.3381 18.6332C17.4604 19.2851 17.5224 19.947 17.5232 20.6105C17.5232 24.8057 15.0808 28.5525 11.2482 31.0494C15.0426 33.9055 17.7143 38.0651 18.2669 42.5838C18.3346 43.0557 18.368 43.532 18.3668 44.0089H23.4985C23.3898 38.2996 19.804 33 14.7222 29.9271Z" fill="#B4B4B4"/>
<path d="M0 32.5963V34.2381C6.63072 34.2381 11.1482 38.3145 11.9829 42.5809C11.4831 39.7511 10.0034 37.193 7.80819 35.3638C5.61298 33.5347 2.84536 32.5537 0 32.5963Z" fill="#ABABAB"/>
<path d="M11.4686 18.6571C11.6207 17.8747 11.6965 17.0792 11.6949 16.2819C11.6949 13.5118 10.7926 10.8903 8.98792 8.91293C6.16506 7.62156 3.09878 6.96319 0 6.9831V11.5078C6.72772 11.5197 10.5427 14.6994 11.4686 18.6571Z" fill="#ABABAB"/>
<path d="M9.58752 29.9272C10.1577 30.2716 10.7073 30.6517 11.2393 31.0495C15.0602 28.5526 17.5144 24.8147 17.5144 20.6106C17.5136 19.9471 17.4516 19.2852 17.3292 18.6333C16.6033 23.3539 13.6935 27.4214 9.58752 29.9272Z" fill="#ABABAB"/>
<path d="M11.2393 31.0493C10.705 31.3959 10.1537 31.715 9.58752 32.0053C14.2431 34.3597 17.6349 38.2787 18.258 42.5837C17.7113 38.0709 15.0338 33.9144 11.2393 31.0493Z" fill="#D9D9D9"/>
<path d="M16.8296 16.2937C16.8296 16.4698 16.8296 16.645 16.8296 16.8192C17.0499 17.4081 17.22 18.015 17.3381 18.6332C17.4594 17.8593 17.5213 17.0772 17.5232 16.2937C17.5232 7.29473 9.68159 0 0.0088501 0L5.1406 5.41241C12.9411 5.41241 16.8296 10.5339 16.8296 16.2937Z" fill="#D9D9D9"/>
<path d="M18.258 42.5839C17.6349 38.2789 14.2431 34.3599 9.58753 32.0055C10.1537 31.7152 10.705 31.3961 11.2393 31.0495C10.7073 30.6516 10.1577 30.2716 9.58753 29.9272C13.7023 27.4214 16.5974 23.3539 17.3293 18.6452C17.2112 18.027 17.0411 17.4201 16.8208 16.8311C16.8208 16.655 16.8208 16.4798 16.8208 16.3056C16.8208 10.5458 12.9323 5.42438 5.12884 5.42438L-0.00878906 0.0119629V5.4125C4.04136 5.4125 7.04517 6.79307 8.97913 8.92478C10.7838 10.9021 11.6861 13.5237 11.6861 16.2937C11.6877 17.091 11.6119 17.8866 11.4598 18.6689C10.5339 23.4371 6.71892 27.1839 -0.00291399 27.1839V32.6082C2.84245 32.5656 5.61007 33.5466 7.80528 35.3757C10.0005 37.2048 11.4802 39.7629 11.98 42.5928C12.072 43.0592 12.1193 43.5334 12.1211 44.009H18.3668C18.3651 43.5319 18.3287 43.0556 18.258 42.5839Z" fill="white"/>
<path d="M40.1341 20.37L39.7697 20.3255L39.4258 20.2572L39.1054 20.1681L38.8115 20.0612L38.544 19.9336L38.3001 19.7881L38.0796 19.6278L37.8857 19.4526L37.7152 19.2626L37.5682 19.0577L37.4477 18.835L37.3478 18.5975L37.2743 18.3422L37.2273 18.0661L37.2096 17.7692V17.4188L37.2508 17.0893L37.3213 16.7924L37.4183 16.4955L37.5418 16.2224L37.6946 15.9641L37.8768 15.7176L38.0591 15.5068L38.4176 15.3139L38.9026 15.1535L39.4463 15.0615L40.0342 15.0288H40.6896C41.1775 15.0556 41.6654 15.0912 42.1592 15.1298L43.0762 15.1981L43.3348 15.2159L45.3041 9.3314L39.5698 9.28687L38.4235 9.3314L37.336 9.46203L36.3103 9.68174L35.3462 9.97863L34.4645 10.3705L34.0412 10.5991L33.6386 10.8456L33.2506 11.1128L32.8832 11.4097L32.5364 11.7066L32.2072 12.0331L31.6987 12.6269L31.2608 13.2623L30.8905 13.9363L30.5966 14.6518L30.3644 15.4029L30.1968 16.1927L30.0999 17.0151L30.0646 17.8701L30.1028 18.7875L30.2174 19.6782L30.4055 20.5155L30.673 21.3052L31.0169 22.0534L31.4372 22.7541L31.9339 23.4043L32.5011 23.9981L33.2271 24.5919L33.7444 24.9452L34.2911 25.2569L34.8789 25.533L35.4667 25.7646C35.9222 25.9202 36.3877 26.0442 36.8599 26.1357L38.5293 26.3435C38.8232 26.3584 39.1172 26.3673 39.4111 26.3673C39.705 26.3673 39.9548 26.3673 40.2046 26.3435H47.7965V20.3878H40.525L40.1341 20.37Z" fill="white"/>
<path d="M46.7472 9.37891L44.9631 15.4237L49.4483 15.5068V26.3554H55.6352V15.5187H60.0028V9.42047L46.7472 9.37891Z" fill="white"/>
<path d="M59.0475 14.5537H54.6829V25.3934H50.4035V14.5597L46.2358 14.4825L47.4585 10.3438L59.0475 10.3823V14.5537Z" fill="white"/>
<path fill-rule="evenodd" clip-rule="evenodd" d="M34.6467 34.5736H31.1344L30.7112 33.4602H27.7426L27.337 34.5736H24.0011L27.0519 27.644H31.5459L34.6467 34.5736ZM30.1645 31.7739L29.2563 29.3987H29.2063L28.3099 31.7739H30.1645Z" fill="white"/>
<path fill-rule="evenodd" clip-rule="evenodd" d="M43.8139 34.3211C43.3319 34.431 42.4267 34.52 41.8271 34.5883C41.167 34.6577 40.5038 34.6913 39.8402 34.6893C37.8808 34.6893 36.4572 34.2756 35.5696 33.4482C35.2473 33.1583 34.9912 32.801 34.8192 32.4011C34.6471 32.0012 34.5632 31.5684 34.5733 31.1325C34.5735 30.7338 34.6587 30.3399 34.8231 29.9775C35.1278 29.314 35.6457 28.7741 36.2926 28.4455C37.2391 27.9289 38.5127 27.6707 40.1135 27.6707C40.5867 27.6707 41.057 27.6885 41.5273 27.7241C41.9975 27.7597 42.5207 27.825 43.1027 27.923V29.7578C42.8303 29.6572 42.5514 29.5759 42.2679 29.5144C41.7848 29.4107 41.2922 29.359 40.7984 29.36C40.0893 29.3229 39.3859 29.5052 38.7821 29.8825C38.5455 30.0349 38.3532 30.2479 38.2246 30.4998C38.096 30.7517 38.0359 31.0335 38.0503 31.3165C38.0503 31.8717 38.2384 32.0766 38.6381 32.3676C39.0342 32.6274 39.5006 32.7561 39.9725 32.7357C40.0782 32.7415 40.1842 32.7415 40.2899 32.7357C40.3663 32.7357 40.4604 32.712 40.5691 32.6912V30.8267H43.8022V34.3211H43.8139Z" fill="white"/>
<path fill-rule="evenodd" clip-rule="evenodd" d="M53.807 34.5735H50.3212L49.9979 32.8753C49.9763 32.7519 49.9236 32.6362 49.8448 32.5395C49.766 32.4427 49.6639 32.3682 49.5482 32.3231C49.3468 32.2406 49.1306 32.2011 48.9133 32.2073H48.1668V34.5824H45.0307V27.6351H50.0478C50.8064 27.6317 51.5586 27.7748 52.2639 28.0567C53.0663 28.4278 53.5601 28.8583 53.5601 29.6094C53.5627 29.8403 53.5107 30.0685 53.4085 30.2751C53.3062 30.4816 53.1567 30.6605 52.9723 30.797C52.5501 31.1105 52.051 31.3015 51.5292 31.3492C51.8693 31.3945 52.1982 31.5032 52.4991 31.6699C52.6787 31.7695 52.8371 31.9039 52.9652 32.0653C53.0933 32.2268 53.1886 32.4123 53.2456 32.611L53.8188 34.5795L53.807 34.5735ZM50.1977 30.0073C50.2004 29.8977 50.1719 29.7897 50.1156 29.6961C50.0593 29.6024 49.9777 29.527 49.8803 29.4788C49.5693 29.339 49.2296 29.2769 48.8898 29.2977H48.0081V30.7525H48.8281C49.0157 30.7572 49.2034 30.7473 49.3895 30.7228C49.9185 30.6337 50.186 30.3932 50.186 30.0073H50.1977Z" fill="white"/>
<path fill-rule="evenodd" clip-rule="evenodd" d="M64 31.18C64.0179 31.6826 63.9105 32.1818 63.6876 32.6316C63.4647 33.0813 63.1335 33.4673 62.7244 33.7541C61.876 34.3775 60.6827 34.6893 59.1445 34.6893C57.6064 34.6893 56.4131 34.3775 55.5647 33.7541C55.1687 33.4546 54.8472 33.0661 54.6258 32.6193C54.4043 32.1724 54.2891 31.6796 54.2891 31.18C54.2891 30.6803 54.4043 30.1875 54.6258 29.7407C54.8472 29.2939 55.1687 28.9053 55.5647 28.6059C56.417 27.9824 57.6103 27.6707 59.1445 27.6707C60.6788 27.6707 61.8721 27.9824 62.7244 28.6059C63.1335 28.8926 63.4647 29.2786 63.6876 29.7284C63.9105 30.1782 64.0179 30.6773 64 31.18ZM60.4907 31.18C60.5107 30.7693 60.4425 30.3591 60.2908 29.9775C60.19 29.7606 60.0265 29.5796 59.8219 29.4582C59.6174 29.3369 59.3812 29.2809 59.1445 29.2976C58.9088 29.277 58.6724 29.3303 58.4678 29.4504C58.2631 29.5705 58.1002 29.7515 58.0012 29.9686C57.7347 30.7507 57.7347 31.6003 58.0012 32.3824C58.1162 32.5867 58.2827 32.7566 58.4837 32.8748C58.6848 32.993 58.9133 33.0553 59.146 33.0553C59.3787 33.0553 59.6072 32.993 59.8083 32.8748C60.0094 32.7566 60.1759 32.5867 60.2908 32.3824C60.4402 32.0002 60.5083 31.5905 60.4907 31.18Z" fill="white"/>
</g>
<defs>
<clipPath id="clip0_17_903">
<rect width="64" height="44" fill="white"/>
</clipPath>
</defs>
</svg>
